<?xml version="1.0" encoding="UTF-8"?>
<svg id="Layer_1" data-name="Layer 1" xmlns="http://www.w3.org/2000/svg" viewBox="0 0 38.98 40.42">
  <path d="M36.43,19.48c-1.47-7.1-7.58-12.76-14.81-13.56v-1.58h2.48c.3,0,1.04-.41,1.26-.64,1.23-1.26.53-3.3-1.14-3.7h-9.47c-1.66.4-2.36,2.44-1.13,3.7.22.23.96.64,1.25.64h2.49v1.58c-7.4.83-13.55,6.66-14.89,13.95-1.6,8.68,3.5,17.2,11.91,19.77,12.67,3.87,24.73-7.22,22.05-20.16ZM27.09,24.85c-2.51-.15-5.32.24-7.8.01-.61-.05-.92-.32-1.3-.75-1.53-1.71-2.78-3.98-4.3-5.73-1.32-2.12,1.54-4,3.03-2l3.65,4.91,6.78.05c1.82.49,1.77,3.09-.06,3.51Z" style="fill: #3d78a0;"/>
  <path d="M27.09,24.85c-2.51-.15-5.32.24-7.8.01-.61-.05-.92-.32-1.3-.75-1.53-1.71-2.78-3.98-4.3-5.73-1.32-2.12,1.54-4,3.03-2l3.65,4.91,6.78.05c1.82.49,1.77,3.09-.06,3.51Z" style="fill: #c5d9cf;"/>
  <g>
    <path d="M33.44,3.65c.67-.11,1.29.02,1.83.42.59.44,2.87,2.7,3.28,3.27,1.4,1.97-.81,4.37-2.9,3.14-.57-.34-3.29-3.08-3.61-3.65-.67-1.2.01-2.94,1.4-3.18Z" style="fill: #3d78a0;"/>
    <path d="M4.64,3.65c1.74-.25,3.1,1.34,2.43,2.98-.25.61-2.62,2.96-3.23,3.47-2.35,1.99-4.95-.73-3.32-2.84.54-.7,2.41-2.55,3.12-3.12.3-.24.62-.44,1.01-.49Z" style="fill: #3d78a0;"/>
  </g>
</svg>