<?xml version="1.0" encoding="UTF-8"?>
<svg id="Layer_1" xmlns="http://www.w3.org/2000/svg" version="1.1" viewBox="0 0 24 24">
  <!-- Generator: Adobe Illustrator 30.1.0, SVG Export Plug-In . SVG Version: 2.1.1 Build 136)  -->
  <defs>
    <style>
      .st0 {
        fill: #1f1f1f;
      }
    </style>
  </defs>
  <g id="Layer_2">
    <g>
      <path class="st0" d="M4.56,9.48v-2.32l.82-.05.05.82,3.04-.05.05.82-3.14.05.05.72-.82.05-.05-.04ZM1.52,8.76l-.05-.82,2.37-.05.05.87H1.52ZM3.07,7.22l-.05-.83-1.5.05-.05-.82,1.6-.05-.05-.72.82-.05.05,2.42h-.82ZM4.61,6.44l-.05-.82,3.92-.05.05.87h-3.92ZM6.11,4.84v-2.32l.82-.05.05.82,1.5-.05.05.82-1.6.05.05.72-.82.05-.05-.04ZM1.52,4.12l-.05-.82,3.92-.05.05.87H1.52Z"/>
      <path d="M6.93,2.52v.77h1.55v.77h-1.55v.77h-.77v-2.31h.77M5.39,3.3v.77H1.52v-.77h3.87M6.16,4.83h0s0,0,0,0M3.84,4.85v2.32h-.77v-.78h-1.55v-.77h1.55v-.77h.77M8.48,5.62v.77h-3.87v-.77h3.87M5.38,7.16v.77h3.09v.77h-3.09v.77h-.77v-2.31h.77M3.84,7.94v.77H1.52v-.77h2.32M4.61,9.47h0s0,0,0,0M7.03,2.42h-.97v2.51h.97v-.77h1.55v-.97h-1.55v-.77h0ZM5.49,3.2H1.42v.97h4.07v-.97h0ZM3.94,4.75h-.97v.77h-1.55v.97h1.55v.77h.1s.77.01.77.01h.1v-2.52h0ZM8.58,5.52h-4.07v.97h4.07v-.97h0ZM5.48,7.06h-.97v2.51h.97v-.77h3.09v-.97h-3.09v-.77h0ZM3.94,7.84H1.42v.97h2.52v-.97h0Z"/>
    </g>
  </g>
  <path class="st0" d="M5.33,22.42c-1.35,0-2.48-.46-3.4-1.37-.91-.91-1.37-2.05-1.37-3.4s.46-2.48,1.39-3.4c.93-.91,2.05-1.37,3.37-1.37,1.22,0,2.25.37,3.09,1.1.83.73,1.36,1.64,1.58,2.72h.62l-1.72-4.77h-1.67v-1.91h4.77v1.91h-1.05l.33.95h4.58l-1.38-3.81h-2.48v-1.91h2.48c.41,0,.78.11,1.11.33s.56.52.7.91l1.62,4.43h.76c1.32,0,2.44.46,3.37,1.39s1.39,2.05,1.39,3.37-.46,2.47-1.38,3.41c-.92.94-2.05,1.41-3.38,1.41-1.14,0-2.15-.36-3.01-1.07s-1.42-1.63-1.66-2.74h-4c-.22,1.1-.76,2.01-1.62,2.73s-1.87,1.08-3.05,1.08ZM5.33,20.51c.65,0,1.21-.18,1.68-.54.47-.36.8-.81.99-1.37h-2.67v-1.91h2.67c-.19-.57-.52-1.03-.99-1.38-.47-.35-1.03-.52-1.68-.52-.81,0-1.49.27-2.04.82s-.82,1.23-.82,2.04.27,1.47.82,2.03c.55.56,1.23.83,2.04.83ZM12.67,16.7h1.33c.08-.37.19-.71.32-1.02s.31-.61.54-.88h-2.91l.71,1.91ZM18.67,20.51c.81,0,1.49-.28,2.04-.83.55-.56.82-1.23.82-2.03s-.27-1.49-.82-2.04-1.23-.82-2.04-.82h-.1l.95,2.53-1.81.67-.91-2.53c-.32.27-.56.59-.74.95s-.26.78-.26,1.24c0,.79.27,1.47.82,2.03.55.56,1.23.83,2.04.83Z"/>
</svg>