<?xml version="1.0" encoding="UTF-8"?>
<svg id="Layer_1" data-name="Layer 1" xmlns="http://www.w3.org/2000/svg" viewBox="0 0 34.79 46.41">
  <path d="M17.92,46.4c.38.02.77,0,1.16-.06-.39.03-.77.06-1.16.06ZM31.12,16.42c-2.63-4.34-7.15-8.55-7.82-13.76-.08-.57-.02-1.54-.16-2.01-.11-.35-.38-.48-.67-.65h-.54c-.57.41-1.15.82-1.68,1.27-3.34,2.88-6.33,7.26-7.53,11.52-.94,3.32-1.08,6.91-1.13,10.34-2.31-.54-3.69-2.81-4.38-4.92-.55-1.68-.42-3.95-2.83-1.97C0,19.83-.78,28.74.66,33.83c2.3,8.14,9.75,12.76,17.26,12.57-2.54-.12-4.9-2.04-5.46-4.85-.32-1.58-.06-3.2.41-4.72.44.52.72,1.15,1.28,1.58.61.47,2.11,1.05,2.71.37.44-.49.22-1.97.27-2.63.16-2.26.75-4.47,2.36-6.12.51,2.13,2.2,3.73,3.22,5.62,1.66,3.07,1.87,7.09-1.04,9.48-.8.66-1.68,1.04-2.56,1.2,3.89-.35,7.73-2.03,10.8-5.2,6.68-6.9,5.92-16.93,1.21-24.71Z" style="fill: #d68565;"/>
  <path d="M21.67,45.13c-.8.66-1.68,1.04-2.56,1.2-.01,0-.02,0-.03.01-.39.03-.77.06-1.16.06-2.54-.12-4.9-2.04-5.46-4.85-.32-1.58-.06-3.2.41-4.72.44.52.72,1.15,1.28,1.58.61.47,2.11,1.05,2.71.37.44-.49.22-1.97.27-2.63.16-2.26.75-4.47,2.36-6.12.51,2.13,2.2,3.73,3.22,5.62,1.66,3.07,1.87,7.09-1.04,9.48Z" style="fill: #edd94c;"/>
</svg>