<?xml version="1.0" encoding="UTF-8"?>
<svg id="Layer_1" xmlns="http://www.w3.org/2000/svg" version="1.1" viewBox="0 0 24 24">
  <!-- Generator: Adobe Illustrator 30.1.0, SVG Export Plug-In . SVG Version: 2.1.1 Build 136)  -->
  <defs>
    <style>
      .st0 {
        stroke: #000;
        stroke-miterlimit: 10;
        stroke-width: .1px;
      }

      .st0, .st1 {
        fill: #1f1f1f;
      }
    </style>
  </defs>
  <path class="st1" d="M5.33,22.42c-1.35,0-2.48-.46-3.4-1.37-.91-.91-1.37-2.05-1.37-3.4s.46-2.48,1.39-3.4c.93-.91,2.05-1.37,3.37-1.37,1.22,0,2.25.37,3.09,1.1.83.73,1.36,1.64,1.58,2.72h.62l-1.72-4.77h-1.67v-1.91h4.77v1.91h-1.05l.33.95h4.58l-1.38-3.81h-2.48v-1.91h2.48c.41,0,.78.11,1.11.33s.56.52.7.91l1.62,4.43h.76c1.32,0,2.44.46,3.37,1.39s1.39,2.05,1.39,3.37-.46,2.47-1.38,3.41-2.05,1.41-3.38,1.41c-1.14,0-2.15-.36-3.01-1.07s-1.42-1.63-1.66-2.74h-4c-.22,1.1-.76,2.01-1.62,2.73s-1.87,1.08-3.05,1.08h.01ZM5.33,20.51c.65,0,1.21-.18,1.68-.54s.8-.81.99-1.37h-2.67v-1.91h2.67c-.19-.57-.52-1.03-.99-1.38s-1.03-.52-1.68-.52c-.81,0-1.49.27-2.04.82s-.82,1.23-.82,2.04.27,1.47.82,2.03c.55.56,1.23.83,2.04.83ZM12.67,16.7h1.33c.08-.37.19-.71.32-1.02s.31-.61.54-.88h-2.91l.71,1.91h.01ZM18.67,20.51c.81,0,1.49-.28,2.04-.83.55-.56.82-1.23.82-2.03s-.27-1.49-.82-2.04-1.23-.82-2.04-.82h-.1l.95,2.53-1.81.67-.91-2.53c-.32.27-.56.59-.74.95s-.26.78-.26,1.24c0,.79.27,1.47.82,2.03.55.56,1.23.83,2.04.83h.01Z"/>
  <path class="st0" d="M4.61,9.85v-2.92l-1.77,1.77-.54-.54,2.15-2.15-2.15-2.15.54-.54,1.77,1.77v-2.92h.38l2.19,2.19-1.65,1.65,1.65,1.65-2.19,2.19h-.38ZM5.38,5.09l.73-.73-.73-.71v1.44ZM5.38,8.37l.73-.71-.73-.73v1.44Z"/>
</svg>