<?xml version="1.0" encoding="UTF-8"?><svg xmlns="http://www.w3.org/2000/svg" width="24" height="24" viewBox="0 0 24 24"><g id="Layer_1"><path d="M18,20c.55,0,1.02-.2,1.41-.59s.59-.86.59-1.41-.2-1.02-.59-1.41-.86-.59-1.41-.59-1.02.2-1.41.59-.59.86-.59,1.41.2,1.02.59,1.41.86.59,1.41.59ZM18,22c-1.1,0-2.04-.39-2.83-1.18-.78-.78-1.18-1.73-1.18-2.83s.39-2.04,1.18-2.83,1.73-1.18,2.83-1.18,2.04.39,2.83,1.18,1.18,1.73,1.18,2.83-.39,2.04-1.18,2.83c-.78.78-1.73,1.18-2.83,1.18ZM15,8.5c-.48,0-.9-.17-1.24-.51s-.51-.75-.51-1.24.17-.9.51-1.24.75-.51,1.24-.51.9.17,1.24.51.51.75.51,1.24-.17.9-.51,1.24-.75.51-1.24.51ZM11,19v-3.68l-2.33-1.93c-.43-.38-.66-.87-.69-1.45s.18-1.08.61-1.48l2-1.93c.38-.38.85-.57,1.4-.56s1.02.2,1.4.59l1.58,1.4c.43.33.91.59,1.43.76s1.05.26,1.6.26v2c-1,0-1.94-.2-2.83-.6s-1.66-.96-2.33-1.68l-1.85,1.78,2,2v4.5h-2ZM6,20c.55,0,1.02-.2,1.41-.59s.59-.86.59-1.41-.2-1.02-.59-1.41-.86-.59-1.41-.59-1.02.2-1.41.59-.59.86-.59,1.41.2,1.02.59,1.41.86.59,1.41.59ZM6,22c-1.1,0-2.04-.39-2.83-1.18-.78-.78-1.18-1.73-1.18-2.83s.39-2.04,1.18-2.83c.78-.78,1.73-1.18,2.83-1.18s2.04.39,2.83,1.18,1.18,1.73,1.18,2.83-.39,2.04-1.18,2.83c-.78.78-1.73,1.18-2.83,1.18Z" style="fill:#1f1f1f;"/></g><g id="Layer_2"><path d="M6.37,2.62c-.15,0-.28-.05-.38-.15s-.15-.23-.15-.38.05-.28.15-.38.23-.15.38-.15.28.05.38.15.15.23.15.38-.05.28-.15.38-.23.15-.38.15ZM6.37,9.66c-.15,0-.28-.05-.38-.15s-.15-.23-.15-.38.05-.28.15-.38.23-.15.38-.15.28.05.38.15.15.23.15.38-.05.28-.15.38-.23.15-.38.15ZM8.08,4.12c-.15,0-.28-.05-.38-.15s-.15-.23-.15-.38.05-.28.15-.38.23-.15.38-.15.28.05.38.15.15.23.15.38-.05.28-.15.38-.23.15-.38.15ZM8.08,8.17c-.15,0-.28-.05-.38-.15-.1-.1-.15-.23-.15-.38s.05-.28.15-.38.23-.15.38-.15.28.05.38.15.15.23.15.38-.05.28-.15.38c-.1.1-.23.15-.38.15ZM8.72,6.14c-.15,0-.28-.05-.38-.15s-.15-.23-.15-.38.05-.28.15-.38c.1-.1.23-.15.38-.15s.28.05.38.15c.1.1.15.23.15.38s-.05.28-.15.38-.23.15-.38.15ZM4.99,9.87c-.59,0-1.14-.11-1.66-.34s-.97-.53-1.35-.91-.69-.83-.91-1.35-.34-1.07-.34-1.66.11-1.14.34-1.66.53-.97.91-1.35.83-.69,1.35-.91,1.07-.34,1.66-.34v.85c-.95,0-1.76.33-2.42.99s-.99,1.47-.99,2.42.33,1.76.99,2.42,1.47.99,2.42.99v.85ZM4.99,6.46c-.23,0-.44-.08-.6-.25s-.25-.37-.25-.6c0-.04,0-.07,0-.11s.01-.08.03-.11l-.88-.88.6-.6.88.88s.1-.02.22-.03c.23,0,.44.08.6.25s.25.37.25.6-.08.44-.25.6-.37.25-.6.25Z" style="fill:#1f1f1f; stroke:#000; stroke-miterlimit:10; stroke-width:.25px;"/></g></svg>