<?xml version="1.0" encoding="UTF-8"?>
<svg id="Layer_1" xmlns="http://www.w3.org/2000/svg" version="1.1" viewBox="0 0 24 24">
  <!-- Generator: Adobe Illustrator 30.1.0, SVG Export Plug-In . SVG Version: 2.1.1 Build 136)  -->
  <defs>
    <style>
      .st0, .st1 {
        fill: #1f1f1f;
      }

      .st1 {
        stroke: #000;
        stroke-miterlimit: 10;
        stroke-width: .25px;
      }
    </style>
  </defs>
  <g id="Layer_11" data-name="Layer_1">
    <path class="st0" d="M18,20c.55,0,1.02-.2,1.41-.59s.59-.86.59-1.41-.2-1.02-.59-1.41-.86-.59-1.41-.59-1.02.2-1.41.59-.59.86-.59,1.41.2,1.02.59,1.41.86.59,1.41.59ZM18,22c-1.1,0-2.04-.39-2.83-1.18-.78-.78-1.18-1.73-1.18-2.83s.39-2.04,1.18-2.83,1.73-1.18,2.83-1.18,2.04.39,2.83,1.18,1.18,1.73,1.18,2.83-.39,2.04-1.18,2.83-1.73,1.18-2.83,1.18ZM15,8.5c-.48,0-.9-.17-1.24-.51s-.51-.75-.51-1.24.17-.9.51-1.24.75-.51,1.24-.51.9.17,1.24.51.51.75.51,1.24-.17.9-.51,1.24c-.34.34-.75.51-1.24.51ZM11,19v-3.68l-2.33-1.93c-.43-.38-.66-.87-.69-1.45s.18-1.08.61-1.48l2-1.93c.38-.38.85-.57,1.4-.56s1.02.2,1.4.59l1.58,1.4c.43.33.91.59,1.43.76s1.05.26,1.6.26v2c-1,0-1.94-.2-2.83-.6s-1.66-.96-2.33-1.68l-1.85,1.78,2,2v4.5h-2v.02ZM6,20c.55,0,1.02-.2,1.41-.59s.59-.86.59-1.41-.2-1.02-.59-1.41-.86-.59-1.41-.59-1.02.2-1.41.59-.59.86-.59,1.41.2,1.02.59,1.41.86.59,1.41.59ZM6,22c-1.1,0-2.04-.39-2.83-1.18-.78-.78-1.18-1.73-1.18-2.83s.39-2.04,1.18-2.83c.78-.78,1.73-1.18,2.83-1.18s2.04.39,2.83,1.18,1.18,1.73,1.18,2.83-.39,2.04-1.18,2.83c-.78.78-1.73,1.18-2.83,1.18Z"/>
  </g>
  <path class="st1" d="M.82,9.78v-1.04h1.43l-.21-.18c-.45-.4-.77-.85-.95-1.37s-.27-1.03-.27-1.55c0-.96.29-1.82.87-2.57.58-.75,1.33-1.25,2.26-1.49v1.09c-.62.23-1.13.61-1.51,1.15-.38.54-.57,1.15-.57,1.82,0,.39.07.77.22,1.14.15.37.38.71.69,1.02l.13.13v-1.28h1.04v3.12H.82ZM6.03,9.65v-1.09c.62-.23,1.13-.61,1.51-1.15s.57-1.15.57-1.82c0-.39-.07-.77-.22-1.14s-.38-.71-.69-1.02l-.13-.13v1.28h-1.04V1.44h3.12v1.04h-1.43l.21.18c.43.43.74.89.93,1.39s.29,1.01.29,1.53c0,.96-.29,1.82-.87,2.57-.58.75-1.33,1.25-2.26,1.49Z"/>
</svg>